<svg width="62" height="62" viewBox="0 0 62 62" fill="none" xmlns="http://www.w3.org/2000/svg" role="img" aria-label="IMG.LY">
  <rect x="0.5" y="0.5" width="61" height="61" rx="13.5" fill="#ffffff" stroke="#e5e7eb"/>
  <g transform="translate(6 25) scale(.352)">
    <path d="M0.44 29H8.84V1H0.44V29ZM46.5213 1H36.2013L30.2413 19.08L24.3213 1H13.7213V29H21.8013V11.64L27.2013 29H33.3613L38.4413 11.64V29H46.5213V1ZM66.0166 18.96H70.6566C70.2566 21.16 68.4966 22.92 65.3766 22.92C60.7766 22.92 58.5366 19.48 58.5366 15.12C58.5366 11.16 60.3766 7.36 64.8566 7.36C67.7766 7.36 69.3766 9.12 69.6566 10.72H78.8566C78.3366 5.04 73.0566.24 64.9366.24C55.5366.24 50.0566 7.32 50.0566 15C50.0566 23.04 55.3766 29.76 64.9766 29.76C73.2166 29.76 78.0566 25.4 79.0966 18.96H81.7766V13.48H66.0166V18.96ZM105.948 21.88V1H97.6275V29H113.268V21.88H105.948ZM141.93 1H132.65L128.41 10.96L123.89 1H114.13L123.53 19.12L118.69 29H128.05L141.93 1Z" fill="#111827"/>
    <path d="M83.8188 24.68C83.8188 27.32 85.9388 29.48 88.6588 29.48C91.4588 29.48 93.5788 27.32 93.5788 24.68C93.5788 22.04 91.4588 19.88 88.6588 19.88C85.9388 19.88 83.8188 22.04 83.8188 24.68Z" fill="#471AFF"/>
  </g>
</svg>
